<?xml version="1.0" encoding="utf-8"?>
<!-- Generator: Adobe Illustrator 27.1.1, SVG Export Plug-In . SVG Version: 6.00 Build 0)  -->
<svg version="1.1" id="Layer_1" xmlns="http://www.w3.org/2000/svg" xmlns:xlink="http://www.w3.org/1999/xlink" x="0px" y="0px"
	 viewBox="0 0 1080 1080" style="enable-background:new 0 0 1080 1080;" xml:space="preserve">
<style type="text/css">
	.st0{fill-rule:evenodd;clip-rule:evenodd;fill:#3F4749;}
</style>
<g>
	<path class="st0" d="M811.3,813.19c0,46.58-0.04,92.54,0.02,138.5c0.02,11.75-2.94,22.31-14.13,27.76
		c-12.12,5.9-23.67,3.1-33.96-5.31c-1.18-0.96-2.29-2-3.44-3c-53.02-46.15-106.41-91.89-158.84-138.71
		c-16.43-14.67-32.94-22.05-55.8-21.68c-85.89,1.36-171.83,1.37-257.73,0.2c-44.3-0.6-83-18.31-117.64-47.49
		c9.58-10.2,18.55-19.88,27.66-29.41c28.09-29.39,56.7-58.3,84.21-88.23c18.68-20.32,40.43-26.81,66.81-20.29
		c39.6,9.78,78.89,9.69,114.92-11.14c18.13-10.48,34.66-24.61,49.74-39.32c49.26-48.01,97.52-97.04,146.14-145.7
		c3.22-3.22,6.53-6.43,9.21-10.08c11.19-15.25,9.42-35.53-3.91-47.61c-14.16-12.83-34.69-13.52-48.59-0.11
		c-22.97,22.16-45.08,45.2-67.62,67.81c-21.73,21.8-43.25,43.83-65.52,65.07c-5.77,5.5-13.55,10.29-21.19,12.13
		c-15.26,3.69-27.81-3.03-34.42-15.8c-6.98-13.48-4.69-27.08,7.53-39.42c35.83-36.18,71.88-72.15,107.84-108.2
		c8.05-8.07,16.3-15.96,24.09-24.28c14.29-15.27,14.53-35.52,0.91-49.02c-14.62-14.5-35.88-14.67-50.89,0.36
		c-43.77,43.83-87.01,88.19-131.19,131.6c-6.47,6.36-16.62,11.07-25.64,12.26c-13.3,1.76-24.5-5.09-30.13-17.98
		c-6.22-14.26-1.93-26.99,8.39-37.51c25.81-26.31,52.02-52.23,78.03-78.35c16.63-16.69,33.34-33.31,49.74-50.22
		c15.44-15.92,15.86-37.3,1.46-51.83c-14.35-14.48-35.13-14.68-50.8,0.88c-53.4,53-107.45,105.41-159.24,159.95
		c-37.91,39.93-48.79,88.87-36.46,142.73c1.44,6.28,2.23,12.7,3.21,19.08c3.37,21.88-2.73,39.74-19.6,55.1
		c-34.82,31.7-68.62,64.52-106.08,99.94c-3.84-22.29-9.85-41.59-10.04-60.94C87.39,504.2,85.8,403.4,88.5,302.73
		c2.29-85.35,60.02-161.77,144.11-191.02c22.92-7.97,48.03-13.35,72.18-13.52c158.52-1.14,317.04-0.8,475.57-0.4
		c120.79,0.31,217.56,97.88,217.62,218.6c0.04,91.24,0.03,182.47,0.01,273.71c-0.03,110.21-74.08,200.1-182.4,221.49
		C814.51,811.81,813.5,812.36,811.3,813.19z"/>
</g>
</svg>
